<svg width="720" height="760" viewBox="0 0 720 760" fill="none" xmlns="http://www.w3.org/2000/svg">
  <defs>
    <linearGradient id="heroBg" x1="0" y1="0" x2="720" y2="760" gradientUnits="userSpaceOnUse">
      <stop stop-color="#071c4d"/>
      <stop offset="1" stop-color="#2563eb"/>
    </linearGradient>
    <linearGradient id="cardLight" x1="0" y1="0" x2="1" y2="1">
      <stop stop-color="#ffffff" stop-opacity="0.98"/>
      <stop offset="1" stop-color="#dbeafe" stop-opacity="0.88"/>
    </linearGradient>
    <linearGradient id="chartBlue" x1="0" y1="0" x2="1" y2="1">
      <stop stop-color="#93c5fd"/>
      <stop offset="1" stop-color="#dbeafe"/>
    </linearGradient>
    <filter id="shadow" x="-20%" y="-20%" width="140%" height="140%">
      <feDropShadow dx="0" dy="28" stdDeviation="30" flood-color="#02102d" flood-opacity="0.22"/>
    </filter>
  </defs>

  <rect width="720" height="760" rx="36" fill="url(#heroBg)"/>

  <circle cx="116" cy="116" r="64" fill="rgba(255,255,255,0.06)"/>
  <circle cx="620" cy="128" r="88" fill="rgba(255,255,255,0.05)"/>
  <circle cx="566" cy="646" r="120" fill="rgba(255,255,255,0.05)"/>

  <g filter="url(#shadow)">
    <rect x="82" y="168" width="556" height="346" rx="32" fill="url(#cardLight)"/>
  </g>

  <rect x="116" y="206" width="168" height="18" rx="9" fill="#1e3a8a" fill-opacity="0.18"/>
  <rect x="116" y="238" width="108" height="12" rx="6" fill="#1e40af" fill-opacity="0.14"/>
  <rect x="414" y="206" width="140" height="36" rx="18" fill="#ffffff" fill-opacity="0.62"/>

  <rect x="116" y="282" width="146" height="114" rx="22" fill="#eff6ff"/>
  <rect x="282" y="282" width="146" height="114" rx="22" fill="#eff6ff"/>
  <rect x="448" y="282" width="146" height="114" rx="22" fill="#eff6ff"/>

  <rect x="136" y="302" width="58" height="12" rx="6" fill="#94a3b8"/>
  <rect x="136" y="330" width="88" height="34" rx="10" fill="#111827"/>
  <rect x="136" y="372" width="94" height="10" rx="5" fill="#cbd5e1"/>

  <rect x="302" y="302" width="52" height="12" rx="6" fill="#94a3b8"/>
  <path d="M302 366C314 354 326 358 338 348C350 338 362 360 374 350C386 340 398 360 410 348" stroke="#a78bfa" stroke-width="5" stroke-linecap="round"/>
  <rect x="302" y="372" width="90" height="10" rx="5" fill="#cbd5e1"/>

  <rect x="468" y="302" width="56" height="12" rx="6" fill="#94a3b8"/>
  <rect x="468" y="336" width="12" height="28" rx="6" fill="#60a5fa"/>
  <rect x="488" y="346" width="12" height="18" rx="6" fill="#93c5fd"/>
  <rect x="508" y="328" width="12" height="36" rx="6" fill="#3b82f6"/>
  <rect x="528" y="340" width="12" height="24" rx="6" fill="#60a5fa"/>
  <rect x="548" y="320" width="12" height="44" rx="6" fill="#2563eb"/>

  <rect x="116" y="430" width="478" height="52" rx="18" fill="#eff6ff"/>
  <rect x="144" y="448" width="124" height="12" rx="6" fill="#1d4ed8"/>
  <rect x="436" y="446" width="130" height="16" rx="8" fill="#93c5fd"/>

  <g filter="url(#shadow)">
    <rect x="122" y="562" width="238" height="134" rx="30" fill="#eff6ff"/>
  </g>
  <g filter="url(#shadow)">
    <rect x="388" y="562" width="210" height="134" rx="30" fill="#eff6ff"/>
  </g>

  <circle cx="206" cy="630" r="42" stroke="#3b82f6" stroke-width="12"/>
  <path d="M173 638C194 628 224 626 239 634V654H173V638Z" fill="url(#chartBlue)"/>
  <path d="M173 632C196 628 220 628 239 632" stroke="#bfdbfe" stroke-width="6" stroke-linecap="round"/>

  <rect x="420" y="592" width="118" height="12" rx="6" fill="#94a3b8"/>
  <rect x="420" y="622" width="70" height="38" rx="12" fill="#111827"/>
  <rect x="502" y="622" width="56" height="38" rx="12" fill="#2563eb"/>
  <rect x="420" y="672" width="138" height="10" rx="5" fill="#cbd5e1"/>
</svg>
