<svg width="1440" height="1800" viewBox="0 0 1440 1800" fill="none" xmlns="http://www.w3.org/2000/svg">
  <defs>
    <linearGradient id="shellBg" x1="0" y1="0" x2="1440" y2="1800" gradientUnits="userSpaceOnUse">
      <stop stop-color="#eef5ff"/>
      <stop offset="1" stop-color="#f8fbff"/>
    </linearGradient>
    <linearGradient id="sidebarBg" x1="0" y1="0" x2="1" y2="1">
      <stop stop-color="#03152b"/>
      <stop offset="1" stop-color="#072244"/>
    </linearGradient>
    <linearGradient id="accent" x1="0" y1="0" x2="1" y2="1">
      <stop stop-color="#53a5ff"/>
      <stop offset="1" stop-color="#1677ff"/>
    </linearGradient>
    <linearGradient id="violet" x1="0" y1="0" x2="1" y2="1">
      <stop stop-color="#d8b4fe"/>
      <stop offset="1" stop-color="#a855f7"/>
    </linearGradient>
    <filter id="cardShadow" x="-20%" y="-20%" width="140%" height="140%">
      <feDropShadow dx="0" dy="16" stdDeviation="20" flood-color="#0f172a" flood-opacity="0.07"/>
    </filter>
  </defs>

  <rect width="1440" height="1800" rx="28" fill="url(#shellBg)"/>

  <rect x="0" y="0" width="212" height="1800" rx="0" fill="url(#sidebarBg)"/>
  <rect x="16" y="18" width="180" height="44" rx="12" fill="rgba(255,255,255,0.02)"/>
  <circle cx="34" cy="40" r="11" fill="#1677ff"/>
  <circle cx="34" cy="40" r="4.5" fill="#8fd0ff"/>
  <rect x="58" y="28" width="94" height="24" rx="8" fill="#ffffff"/>
  <rect x="194" y="16" width="28" height="28" rx="14" fill="#3b82f6"/>
  <path d="M203 30L197 24L203 18" stroke="#ffffff" stroke-width="2.2" stroke-linecap="round" stroke-linejoin="round"/>

  <rect x="10" y="78" width="188" height="40" rx="14" fill="#12325f"/>
  <circle cx="28" cy="98" r="7" stroke="#dbeafe" stroke-width="2"/>
  <rect x="48" y="91" width="88" height="14" rx="7" fill="#ffffff"/>
  <path d="M176 93L182 99L176 105" stroke="#60a5fa" stroke-width="2" stroke-linecap="round" stroke-linejoin="round"/>

  <rect x="44" y="120" width="128" height="32" rx="10" fill="#1f4b85"/>
  <rect x="58" y="129" width="18" height="14" rx="4" fill="rgba(255,255,255,0.14)"/>
  <path d="M64 133H71M64 138H69M64 143H67" stroke="#93c5fd" stroke-width="1.8" stroke-linecap="round"/>
  <rect x="84" y="129" width="54" height="14" rx="7" fill="#ffffff"/>

  <circle cx="28" cy="170" r="5" fill="#93c5fd"/>
  <rect x="48" y="163" width="54" height="14" rx="7" fill="#dbeafe"/>
  <circle cx="28" cy="210" r="5" fill="#93c5fd"/>
  <rect x="48" y="203" width="64" height="14" rx="7" fill="#dbeafe"/>
  <circle cx="28" cy="250" r="5" fill="#93c5fd"/>
  <rect x="48" y="243" width="72" height="14" rx="7" fill="#dbeafe"/>

  <g fill="#dbeafe">
    <circle cx="28" cy="304" r="5"/>
    <circle cx="28" cy="364" r="5"/>
    <circle cx="28" cy="424" r="5"/>
    <circle cx="28" cy="484" r="5"/>
    <circle cx="28" cy="544" r="5"/>
    <circle cx="28" cy="604" r="5"/>
    <circle cx="28" cy="664" r="5"/>
  </g>
  <g fill="#dbeafe">
    <rect x="48" y="297" width="44" height="14" rx="7"/>
    <rect x="48" y="357" width="84" height="14" rx="7"/>
    <rect x="48" y="417" width="66" height="14" rx="7"/>
    <rect x="48" y="477" width="54" height="14" rx="7"/>
    <rect x="48" y="537" width="82" height="14" rx="7"/>
    <rect x="48" y="597" width="42" height="14" rx="7"/>
    <rect x="48" y="657" width="58" height="14" rx="7"/>
  </g>
  <g>
    <path d="M0 720H212V792H0V720Z" fill="rgba(255,255,255,0.04)"/>
    <circle cx="30" cy="756" r="14" fill="#94a3b8"/>
    <rect x="52" y="748" width="56" height="12" rx="6" fill="#ffffff"/>
    <rect x="116" y="748" width="36" height="12" rx="6" fill="#dbeafe"/>
  </g>

  <g filter="url(#cardShadow)">
    <rect x="248" y="62" width="257" height="140" rx="18" fill="#ffffff"/>
    <rect x="528" y="62" width="257" height="140" rx="18" fill="#ffffff"/>
    <rect x="808" y="62" width="257" height="140" rx="18" fill="#ffffff"/>
    <rect x="1088" y="62" width="257" height="140" rx="18" fill="#ffffff"/>
  </g>

  <rect x="270" y="84" width="74" height="10" rx="5" fill="#9ca3af"/>
  <rect x="270" y="112" width="112" height="40" rx="10" fill="#111827"/>
  <rect x="270" y="170" width="142" height="10" rx="5" fill="#cbd5e1"/>

  <rect x="550" y="84" width="46" height="10" rx="5" fill="#9ca3af"/>
  <rect x="550" y="112" width="92" height="40" rx="10" fill="#111827"/>
  <path d="M550 170C564 162 578 166 592 158C606 150 620 172 634 162C648 152 662 168 676 158C690 148 704 166 718 156C732 146 746 164 762 160" stroke="url(#violet)" stroke-width="4.5" stroke-linecap="round"/>

  <rect x="830" y="84" width="58" height="10" rx="5" fill="#9ca3af"/>
  <rect x="830" y="112" width="84" height="40" rx="10" fill="#111827"/>
  <g fill="#4dabff">
    <rect x="830" y="150" width="10" height="34" rx="5"/>
    <rect x="848" y="158" width="10" height="26" rx="5"/>
    <rect x="866" y="164" width="10" height="20" rx="5"/>
    <rect x="884" y="170" width="10" height="14" rx="5"/>
    <rect x="902" y="150" width="10" height="34" rx="5"/>
    <rect x="920" y="160" width="10" height="24" rx="5"/>
    <rect x="938" y="156" width="10" height="28" rx="5"/>
    <rect x="956" y="162" width="10" height="22" rx="5"/>
    <rect x="974" y="146" width="10" height="38" rx="5"/>
    <rect x="992" y="158" width="10" height="26" rx="5"/>
  </g>

  <rect x="1112" y="84" width="126" height="10" rx="5" fill="#9ca3af"/>
  <rect x="1112" y="112" width="82" height="40" rx="10" fill="#111827"/>
  <rect x="1112" y="168" width="210" height="8" rx="4" fill="#e5e7eb"/>
  <rect x="1112" y="168" width="142" height="8" rx="4" fill="#65a30d"/>
  <rect x="1268" y="164" width="54" height="12" rx="6" fill="#9ca3af"/>

  <g filter="url(#cardShadow)">
    <rect x="248" y="228" width="1096" height="430" rx="20" fill="#ffffff"/>
  </g>
  <rect x="268" y="246" width="42" height="8" rx="4" fill="#1677ff"/>
  <rect x="328" y="246" width="36" height="8" rx="4" fill="#9ca3af"/>
  <rect x="800" y="246" width="44" height="8" rx="4" fill="#6b7280"/>
  <rect x="858" y="246" width="58" height="8" rx="4" fill="#6b7280"/>
  <rect x="930" y="246" width="64" height="8" rx="4" fill="#6b7280"/>
  <rect x="1010" y="242" width="72" height="16" rx="8" fill="#1677ff"/>
  <rect x="1100" y="238" width="186" height="24" rx="12" fill="#f3f4f6"/>

  <g fill="#4dabff">
    <rect x="332" y="542" width="46" height="146" rx="8"/>
    <rect x="392" y="458" width="46" height="230" rx="8"/>
    <rect x="452" y="322" width="46" height="366" rx="8"/>
    <rect x="512" y="404" width="46" height="284" rx="8"/>
    <rect x="572" y="514" width="46" height="174" rx="8"/>
    <rect x="632" y="385" width="46" height="303" rx="8"/>
    <rect x="692" y="525" width="46" height="163" rx="8"/>
    <rect x="752" y="550" width="46" height="138" rx="8"/>
    <rect x="812" y="404" width="46" height="284" rx="8"/>
    <rect x="872" y="480" width="46" height="208" rx="8"/>
    <rect x="932" y="416" width="46" height="272" rx="8"/>
    <rect x="992" y="522" width="46" height="166" rx="8"/>
  </g>

  <rect x="1088" y="300" width="160" height="12" rx="6" fill="#111827"/>
  <g fill="#111827">
    <circle cx="1104" cy="348" r="13"/>
    <circle cx="1104" cy="392" r="13"/>
    <circle cx="1104" cy="436" r="13"/>
    <circle cx="1104" cy="480" r="13"/>
    <circle cx="1104" cy="524" r="13"/>
    <circle cx="1104" cy="568" r="13"/>
    <circle cx="1104" cy="612" r="13"/>
  </g>
  <g fill="#475569">
    <rect x="1128" y="342" width="142" height="10" rx="5"/>
    <rect x="1128" y="386" width="138" height="10" rx="5"/>
    <rect x="1128" y="430" width="140" height="10" rx="5"/>
    <rect x="1128" y="474" width="144" height="10" rx="5"/>
    <rect x="1128" y="518" width="132" height="10" rx="5"/>
    <rect x="1128" y="562" width="136" height="10" rx="5"/>
    <rect x="1128" y="606" width="144" height="10" rx="5"/>
  </g>
  <g fill="#334155">
    <rect x="1286" y="342" width="36" height="10" rx="5"/>
    <rect x="1286" y="386" width="36" height="10" rx="5"/>
    <rect x="1286" y="430" width="36" height="10" rx="5"/>
    <rect x="1286" y="474" width="36" height="10" rx="5"/>
    <rect x="1286" y="518" width="36" height="10" rx="5"/>
    <rect x="1286" y="562" width="36" height="10" rx="5"/>
    <rect x="1286" y="606" width="36" height="10" rx="5"/>
  </g>

  <g filter="url(#cardShadow)">
    <rect x="248" y="684" width="562" height="312" rx="20" fill="#ffffff"/>
    <rect x="830" y="684" width="514" height="312" rx="20" fill="#ffffff"/>
  </g>
  <rect x="272" y="706" width="160" height="12" rx="6" fill="#111827"/>
  <rect x="854" y="706" width="196" height="12" rx="6" fill="#111827"/>

  <rect x="272" y="760" width="106" height="10" rx="5" fill="#9ca3af"/>
  <rect x="508" y="760" width="116" height="10" rx="5" fill="#9ca3af"/>
  <rect x="272" y="796" width="44" height="40" rx="10" fill="#111827"/>
  <rect x="508" y="796" width="64" height="40" rx="10" fill="#111827"/>
  <path d="M272 856C290 848 308 852 326 844C344 836 362 860 380 850C398 840 416 856 434 848C452 840 470 858 488 850" stroke="#93c5fd" stroke-width="4" stroke-linecap="round"/>
  <path d="M508 856C526 848 544 852 562 844C580 836 598 860 616 850C634 840 652 856 670 848C688 840 706 858 724 850" stroke="#93c5fd" stroke-width="4" stroke-linecap="round"/>

  <g fill="#475569">
    <rect x="272" y="904" width="56" height="12" rx="6"/>
    <rect x="344" y="904" width="76" height="12" rx="6"/>
    <rect x="438" y="904" width="60" height="12" rx="6"/>
    <rect x="516" y="904" width="82" height="12" rx="6"/>
  </g>
  <g fill="#111827">
    <rect x="272" y="942" width="12" height="12" rx="4"/>
    <rect x="272" y="974" width="12" height="12" rx="4"/>
    <rect x="272" y="1006" width="12" height="12" rx="4"/>
    <rect x="272" y="1038" width="12" height="12" rx="4"/>
    <rect x="272" y="1070" width="12" height="12" rx="4"/>
  </g>
  <g fill="#334155">
    <rect x="306" y="942" width="120" height="10" rx="5"/>
    <rect x="464" y="942" width="48" height="10" rx="5"/>
    <rect x="306" y="974" width="128" height="10" rx="5"/>
    <rect x="464" y="974" width="48" height="10" rx="5"/>
    <rect x="306" y="1006" width="132" height="10" rx="5"/>
    <rect x="464" y="1006" width="48" height="10" rx="5"/>
    <rect x="306" y="1038" width="122" height="10" rx="5"/>
    <rect x="464" y="1038" width="48" height="10" rx="5"/>
    <rect x="306" y="1070" width="134" height="10" rx="5"/>
    <rect x="464" y="1070" width="48" height="10" rx="5"/>
  </g>

  <circle cx="1086" cy="846" r="124" fill="none" stroke="#e5e7eb" stroke-width="34"/>
  <path d="M1086 722A124 124 0 0 1 1203 795" stroke="#1d4ed8" stroke-width="34" stroke-linecap="round"/>
  <path d="M1203 795A124 124 0 0 1 1170 934" stroke="#14b8a6" stroke-width="34" stroke-linecap="round"/>
  <path d="M1170 934A124 124 0 0 1 1016 946" stroke="#f59e0b" stroke-width="34" stroke-linecap="round"/>
  <path d="M1016 946A124 124 0 0 1 966 785" stroke="#a78bfa" stroke-width="34" stroke-linecap="round"/>
  <g fill="#94a3b8">
    <rect x="1210" y="756" width="100" height="10" rx="5"/>
    <rect x="1238" y="820" width="82" height="10" rx="5"/>
    <rect x="1206" y="960" width="108" height="10" rx="5"/>
    <rect x="890" y="942" width="96" height="10" rx="5"/>
  </g>

  <g filter="url(#cardShadow)">
    <rect x="248" y="1022" width="1096" height="360" rx="22" fill="#ffffff"/>
  </g>
  <g fill="#475569">
    <rect x="272" y="1048" width="76" height="12" rx="6"/>
    <rect x="426" y="1048" width="76" height="12" rx="6"/>
    <rect x="580" y="1048" width="76" height="12" rx="6"/>
    <rect x="734" y="1048" width="76" height="12" rx="6"/>
    <rect x="888" y="1048" width="76" height="12" rx="6"/>
    <rect x="1042" y="1048" width="76" height="12" rx="6"/>
    <rect x="1196" y="1048" width="76" height="12" rx="6"/>
  </g>
  <g stroke="#1677ff" stroke-width="4" stroke-linecap="round" fill="none">
    <circle cx="326" cy="1112" r="28" stroke-dasharray="120 70"/>
    <circle cx="480" cy="1112" r="28" stroke="#cbd5e1"/>
    <circle cx="480" cy="1112" r="28" stroke="#1677ff" stroke-dasharray="70 120"/>
    <circle cx="634" cy="1112" r="28" stroke-dasharray="100 90"/>
    <circle cx="788" cy="1112" r="28" stroke-dasharray="92 98"/>
    <circle cx="942" cy="1112" r="28" stroke="#cbd5e1"/>
    <circle cx="942" cy="1112" r="28" stroke="#1677ff" stroke-dasharray="48 140"/>
    <circle cx="1096" cy="1112" r="28" stroke-dasharray="78 112"/>
    <circle cx="1250" cy="1112" r="28" stroke-dasharray="84 106"/>
  </g>

  <g stroke-linecap="round" fill="none">
    <path d="M288 1330C320 1160 350 1492 382 1298C414 1106 444 1490 476 1318C508 1146 538 1396 570 1270C602 1144 632 1356 664 1242C696 1126 726 1358 758 1206C790 1054 820 1358 852 1224C884 1088 914 1268 946 1190C978 1112 1008 1286 1040 1158C1072 1030 1102 1346 1134 1188C1166 1034 1196 1386 1228 1210C1260 1040 1290 1310 1322 1152"
      stroke="#1677ff" stroke-width="4"/>
    <path d="M288 1360C320 1204 350 1426 382 1324C414 1222 444 1202 476 1146C508 1092 538 1260 570 1266C602 1272 632 1300 664 1224C696 1148 726 1086 758 1228C790 1370 820 1140 852 1230C884 1378 914 1142 946 1268C978 1394 1008 1300 1040 1388C1072 1476 1102 1322 1134 1418C1166 1512 1196 1264 1228 1316C1260 1368 1290 1388 1322 1182"
      stroke="#14b8a6" stroke-width="4"/>
  </g>

  <rect x="598" y="1418" width="244" height="12" rx="6" fill="#9ca3af"/>
</svg>
