<svg width="1440" height="900" viewBox="0 0 1440 900" fill="none" xmlns="http://www.w3.org/2000/svg">
  <defs>
    <linearGradient id="bg" x1="0" y1="0" x2="1440" y2="900" gradientUnits="userSpaceOnUse">
      <stop stop-color="#071c35"/>
      <stop offset="1" stop-color="#0d3b66"/>
    </linearGradient>
    <linearGradient id="panel" x1="220" y1="80" x2="1380" y2="820" gradientUnits="userSpaceOnUse">
      <stop stop-color="#ffffff" stop-opacity="0.98"/>
      <stop offset="1" stop-color="#eef4fb" stop-opacity="0.96"/>
    </linearGradient>
    <linearGradient id="accent" x1="0" y1="0" x2="1" y2="1">
      <stop stop-color="#4dabff"/>
      <stop offset="1" stop-color="#1677ff"/>
    </linearGradient>
    <filter id="shadow" x="-20%" y="-20%" width="140%" height="140%">
      <feDropShadow dx="0" dy="28" stdDeviation="28" flood-color="#02101f" flood-opacity="0.2"/>
    </filter>
  </defs>

  <rect width="1440" height="900" rx="28" fill="url(#bg)"/>
  <rect x="24" y="24" width="180" height="852" rx="28" fill="#04152a"/>
  <rect x="54" y="54" width="120" height="28" rx="14" fill="#0d2746"/>
  <circle cx="42" cy="68" r="10" fill="#1677ff"/>
  <circle cx="42" cy="68" r="4" fill="#78c4ff"/>
  <rect x="40" y="124" width="148" height="54" rx="14" fill="#0d2746"/>
  <rect x="56" y="142" width="88" height="14" rx="7" fill="#dbeafe"/>
  <rect x="40" y="196" width="148" height="54" rx="14" fill="#0a2140"/>
  <rect x="56" y="214" width="78" height="14" rx="7" fill="#8bbdf5"/>
  <rect x="40" y="268" width="148" height="54" rx="14" fill="#0a2140"/>
  <rect x="56" y="286" width="94" height="14" rx="7" fill="#8bbdf5"/>
  <rect x="40" y="340" width="148" height="54" rx="14" fill="#0a2140"/>
  <rect x="56" y="358" width="88" height="14" rx="7" fill="#8bbdf5"/>
  <rect x="40" y="412" width="148" height="54" rx="14" fill="#0a2140"/>
  <rect x="56" y="430" width="68" height="14" rx="7" fill="#8bbdf5"/>

  <g filter="url(#shadow)">
    <rect x="224" y="44" width="1188" height="812" rx="30" fill="url(#panel)"/>
  </g>

  <rect x="258" y="78" width="1130" height="64" rx="18" fill="#ffffff"/>
  <rect x="286" y="98" width="240" height="22" rx="11" fill="#1f2937"/>
  <rect x="1132" y="92" width="96" height="34" rx="17" fill="#f3f6fb"/>
  <rect x="1242" y="92" width="44" height="34" rx="17" fill="#f3f6fb"/>
  <rect x="1300" y="92" width="68" height="34" rx="17" fill="#f3f6fb"/>

  <rect x="258" y="166" width="240" height="156" rx="22" fill="#ffffff"/>
  <rect x="522" y="166" width="240" height="156" rx="22" fill="#ffffff"/>
  <rect x="786" y="166" width="240" height="156" rx="22" fill="#ffffff"/>
  <rect x="1050" y="166" width="338" height="156" rx="22" fill="#ffffff"/>

  <rect x="284" y="196" width="76" height="12" rx="6" fill="#94a3b8"/>
  <rect x="284" y="224" width="124" height="42" rx="10" fill="#111827"/>
  <rect x="284" y="280" width="160" height="12" rx="6" fill="#cbd5e1"/>

  <rect x="548" y="196" width="56" height="12" rx="6" fill="#94a3b8"/>
  <path d="M548 264C562 248 578 256 592 244C606 232 620 254 634 242C648 230 662 250 676 238C690 226 704 248 718 236C732 224 746 242 762 236" stroke="#b37feb" stroke-width="5" stroke-linecap="round"/>
  <rect x="548" y="280" width="114" height="12" rx="6" fill="#cbd5e1"/>

  <rect x="812" y="196" width="62" height="12" rx="6" fill="#94a3b8"/>
  <rect x="812" y="238" width="10" height="34" rx="5" fill="#4dabff"/>
  <rect x="830" y="246" width="10" height="26" rx="5" fill="#69b1ff"/>
  <rect x="848" y="252" width="10" height="20" rx="5" fill="#91caff"/>
  <rect x="866" y="258" width="10" height="14" rx="5" fill="#bae0ff"/>
  <rect x="884" y="232" width="10" height="40" rx="5" fill="#1677ff"/>
  <rect x="902" y="246" width="10" height="26" rx="5" fill="#69b1ff"/>
  <rect x="920" y="240" width="10" height="32" rx="5" fill="#4dabff"/>
  <rect x="938" y="248" width="10" height="24" rx="5" fill="#91caff"/>
  <rect x="956" y="228" width="10" height="44" rx="5" fill="#1677ff"/>

  <rect x="1078" y="196" width="140" height="12" rx="6" fill="#94a3b8"/>
  <rect x="1078" y="228" width="84" height="42" rx="10" fill="#111827"/>
  <rect x="1078" y="286" width="220" height="10" rx="5" fill="#e5e7eb"/>
  <rect x="1078" y="286" width="156" height="10" rx="5" fill="url(#accent)"/>

  <rect x="258" y="346" width="1130" height="286" rx="24" fill="#ffffff"/>
  <rect x="286" y="374" width="70" height="10" rx="5" fill="#1677ff"/>
  <rect x="372" y="374" width="58" height="10" rx="5" fill="#94a3b8"/>
  <rect x="932" y="386" width="320" height="220" rx="18" fill="#fbfdff"/>

  <rect x="334" y="536" width="44" height="70" rx="8" fill="#69b1ff"/>
  <rect x="394" y="496" width="44" height="110" rx="8" fill="#4dabff"/>
  <rect x="454" y="430" width="44" height="176" rx="8" fill="#1677ff"/>
  <rect x="514" y="470" width="44" height="136" rx="8" fill="#4dabff"/>
  <rect x="574" y="520" width="44" height="86" rx="8" fill="#69b1ff"/>
  <rect x="634" y="454" width="44" height="152" rx="8" fill="#3c9ae8"/>
  <rect x="694" y="518" width="44" height="88" rx="8" fill="#69b1ff"/>
  <rect x="754" y="536" width="44" height="70" rx="8" fill="#4dabff"/>
  <rect x="814" y="470" width="44" height="136" rx="8" fill="#1677ff"/>

  <circle cx="1022" cy="458" r="18" fill="#111827"/>
  <circle cx="1022" cy="516" r="18" fill="#111827"/>
  <circle cx="1022" cy="574" r="18" fill="#111827"/>
  <rect x="1050" y="446" width="150" height="10" rx="5" fill="#475569"/>
  <rect x="1222" y="446" width="76" height="10" rx="5" fill="#334155"/>
  <rect x="1050" y="504" width="164" height="10" rx="5" fill="#475569"/>
  <rect x="1222" y="504" width="76" height="10" rx="5" fill="#334155"/>
  <rect x="1050" y="562" width="146" height="10" rx="5" fill="#475569"/>
  <rect x="1222" y="562" width="76" height="10" rx="5" fill="#334155"/>

  <rect x="258" y="656" width="534" height="164" rx="24" fill="#ffffff"/>
  <rect x="816" y="656" width="572" height="164" rx="24" fill="#ffffff"/>
  <rect x="286" y="686" width="170" height="12" rx="6" fill="#1f2937"/>
  <rect x="844" y="686" width="220" height="12" rx="6" fill="#1f2937"/>

  <circle cx="414" cy="746" r="54" stroke="#1677ff" stroke-width="14" stroke-linecap="round" stroke-dasharray="250 100"/>
  <circle cx="556" cy="746" r="54" stroke="#cbd5e1" stroke-width="14"/>
  <circle cx="556" cy="746" r="54" stroke="#69b1ff" stroke-width="14" stroke-linecap="round" stroke-dasharray="160 190"/>
  <circle cx="698" cy="746" r="54" stroke="#cbd5e1" stroke-width="14"/>
  <circle cx="698" cy="746" r="54" stroke="#3c9ae8" stroke-width="14" stroke-linecap="round" stroke-dasharray="120 230"/>

  <circle cx="1124" cy="740" r="78" fill="none" stroke="#1677ff" stroke-width="10"/>
  <path d="M1056 760C1092 746 1144 742 1190 756V790H1056V760Z" fill="#4dabff"/>
  <path d="M1056 752C1102 746 1148 748 1190 754" stroke="#93c5fd" stroke-width="8" stroke-linecap="round"/>

  <rect x="998" y="828" width="232" height="10" rx="5" fill="#dbeafe"/>
  <rect x="24" y="790" width="180" height="60" rx="20" fill="#0a2140"/>
  <circle cx="54" cy="820" r="16" fill="#1e3a5f"/>
  <rect x="78" y="812" width="86" height="10" rx="5" fill="#dbeafe"/>
</svg>
